# Blender v2.79 (sub 0) OBJ File: ''
# www.blender.org
o Cube
v -4.938078 4.938078 4.938077
v -4.938078 4.938078 -4.938078
v 4.938078 4.938078 -4.938077
v 4.938076 4.938078 4.938080
v -4.938080 -4.938078 4.938075
v -4.938075 -4.938078 -4.938081
v 4.938080 -4.938078 -4.938076
v 4.938077 -4.938078 4.938078
v -4.938078 4.938078 4.938077
v -4.938078 4.938078 4.938077
v -4.938078 4.938078 -4.938078
v -4.938078 4.938078 -4.938078
v 4.938076 4.938078 4.938080
v 4.938076 4.938078 4.938080
v -4.938080 -4.938078 4.938075
v -4.938080 -4.938078 4.938075
v 4.938078 4.938078 -4.938077
v 4.938078 4.938078 -4.938077
v -4.938075 -4.938078 -4.938081
v -4.938075 -4.938078 -4.938081
v 4.938080 -4.938078 -4.938076
v 4.938080 -4.938078 -4.938076
v 4.938077 -4.938078 4.938078
v 4.938077 -4.938078 4.938078
vn 0.0000 1.0000 0.0000
vn 0.0000 -1.0000 0.0000
vn -1.0000 0.0000 0.0000
vn 0.0000 0.0000 -1.0000
vn 1.0000 0.0000 0.0000
vn 0.0000 0.0000 1.0000
s 1
f 11//1 9//1 13//1
f 24//2 16//2 20//2
f 15//3 10//3 12//3
f 6//4 2//4 18//4
f 3//5 14//5 23//5
f 1//6 5//6 8//6
f 11//1 13//1 17//1
f 24//2 20//2 22//2
f 15//3 12//3 19//3
f 6//4 18//4 21//4
f 3//5 23//5 7//5
f 1//6 8//6 4//6
